<svg width="368" height="148" viewBox="0 0 368 148" fill="none" xmlns="http://www.w3.org/2000/svg">
<g filter="url(#filter0_d_579_50)">
<rect x="20" y="16" width="320" height="100" rx="8" fill="white"/>
</g>
<path d="M47.808 41V30.904H44.464V29.8H52.496V30.904H49.152V41H47.808ZM56.2356 41.192C55.489 41.192 54.817 41.0213 54.2196 40.68C53.6223 40.3387 53.1476 39.8587 52.7956 39.24C52.4543 38.6107 52.2836 37.8747 52.2836 37.032C52.2836 36.1893 52.4596 35.4587 52.8116 34.84C53.1636 34.2107 53.6383 33.7253 54.2356 33.384C54.8436 33.0427 55.521 32.872 56.2676 32.872C57.0143 32.872 57.6863 33.0427 58.2836 33.384C58.881 33.7253 59.3503 34.2107 59.6916 34.84C60.0436 35.4587 60.2196 36.1893 60.2196 37.032C60.2196 37.8747 60.0436 38.6107 59.6916 39.24C59.3396 39.8587 58.8596 40.3387 58.2516 40.68C57.6543 41.0213 56.9823 41.192 56.2356 41.192ZM56.2356 40.04C56.6943 40.04 57.121 39.928 57.5156 39.704C57.9103 39.48 58.2303 39.144 58.4756 38.696C58.721 38.248 58.8436 37.6933 58.8436 37.032C58.8436 36.3707 58.721 35.816 58.4756 35.368C58.241 34.92 57.9263 34.584 57.5316 34.36C57.137 34.136 56.7156 34.024 56.2676 34.024C55.809 34.024 55.3823 34.136 54.9876 34.36C54.593 34.584 54.273 34.92 54.0276 35.368C53.7823 35.816 53.6596 36.3707 53.6596 37.032C53.6596 37.6933 53.7823 38.248 54.0276 38.696C54.273 39.144 54.5876 39.48 54.9716 39.704C55.3663 39.928 55.7876 40.04 56.2356 40.04ZM64.9119 41C64.1865 41 63.6159 40.824 63.1999 40.472C62.7839 40.12 62.5759 39.4853 62.5759 38.568V34.2H61.1999V33.064H62.5759L62.7519 31.16H63.9199V33.064H66.2559V34.2H63.9199V38.568C63.9199 39.0693 64.0212 39.4107 64.2239 39.592C64.4265 39.7627 64.7839 39.848 65.2959 39.848H66.1279V41H64.9119ZM70.6034 41.192C69.942 41.192 69.3927 41.08 68.9554 40.856C68.518 40.632 68.1927 40.3333 67.9794 39.96C67.766 39.5867 67.6594 39.1813 67.6594 38.744C67.6594 37.9333 67.9687 37.3093 68.5874 36.872C69.206 36.4347 70.0487 36.216 71.1154 36.216H73.2594V36.12C73.2594 35.4267 73.078 34.904 72.7154 34.552C72.3527 34.1893 71.8674 34.008 71.2594 34.008C70.7367 34.008 70.2834 34.1413 69.8994 34.408C69.526 34.664 69.2914 35.0427 69.1954 35.544H67.8194C67.8727 34.968 68.0647 34.4827 68.3954 34.088C68.7367 33.6933 69.158 33.3947 69.6594 33.192C70.1607 32.9787 70.694 32.872 71.2594 32.872C72.3687 32.872 73.2007 33.1707 73.7554 33.768C74.3207 34.3547 74.6034 35.1387 74.6034 36.12V41H73.4034L73.3234 39.576C73.0994 40.024 72.7687 40.408 72.3314 40.728C71.9047 41.0373 71.3287 41.192 70.6034 41.192ZM70.8114 40.056C71.3234 40.056 71.7607 39.9227 72.1234 39.656C72.4967 39.3893 72.7794 39.0427 72.9714 38.616C73.1634 38.1893 73.2594 37.7413 73.2594 37.272V37.256H71.2274C70.438 37.256 69.878 37.3947 69.5474 37.672C69.2274 37.9387 69.0674 38.2747 69.0674 38.68C69.0674 39.096 69.2167 39.432 69.5154 39.688C69.8247 39.9333 70.2567 40.056 70.8114 40.056ZM76.6196 41V29.48H77.9636V41H76.6196ZM87.1049 41V30.904H83.7609V29.8H91.7929V30.904H88.4489V41H87.1049ZM93.354 41V29.48H94.698V34.424C94.9647 33.9333 95.3433 33.5547 95.834 33.288C96.3247 33.0107 96.858 32.872 97.434 32.872C98.3513 32.872 99.0873 33.16 99.642 33.736C100.197 34.3013 100.474 35.176 100.474 36.36V41H99.146V36.504C99.146 34.8507 98.4793 34.024 97.146 34.024C96.4527 34.024 95.8713 34.2747 95.402 34.776C94.9327 35.2667 94.698 35.9707 94.698 36.888V41H93.354ZM103.326 31.304C103.06 31.304 102.836 31.2187 102.654 31.048C102.484 30.8667 102.398 30.6427 102.398 30.376C102.398 30.12 102.484 29.9067 102.654 29.736C102.836 29.5653 103.06 29.48 103.326 29.48C103.582 29.48 103.801 29.5653 103.982 29.736C104.164 29.9067 104.254 30.12 104.254 30.376C104.254 30.6427 104.164 30.8667 103.982 31.048C103.801 31.2187 103.582 31.304 103.326 31.304ZM102.654 41V33.064H103.998V41H102.654ZM106.338 41V33.064H107.554L107.666 34.584C107.912 34.0613 108.285 33.6453 108.786 33.336C109.288 33.0267 109.906 32.872 110.642 32.872V34.28H110.274C109.805 34.28 109.373 34.3653 108.978 34.536C108.584 34.696 108.269 34.9733 108.034 35.368C107.8 35.7627 107.682 36.3067 107.682 37V41H106.338ZM112.583 41V34.2H111.383V33.064H112.583V31.688C112.583 30.92 112.775 30.36 113.159 30.008C113.543 29.656 114.103 29.48 114.839 29.48H115.639V30.632H115.047C114.642 30.632 114.354 30.7173 114.183 30.888C114.012 31.048 113.927 31.3253 113.927 31.72V33.064H115.879V34.2H113.927V41H112.583ZM120.615 41C119.89 41 119.319 40.824 118.903 40.472C118.487 40.12 118.279 39.4853 118.279 38.568V34.2H116.903V33.064H118.279L118.455 31.16H119.623V33.064H121.959V34.2H119.623V38.568C119.623 39.0693 119.724 39.4107 119.927 39.592C120.13 39.7627 120.487 39.848 120.999 39.848H121.831V41H120.615Z" fill="#818181"/>
<path d="M132.085 36.647C131.518 37.1681 131.204 37.5529 131.204 37.5529C131.204 37.5529 131.668 37.7296 132.42 37.897C132.007 38.5471 131.804 39 131.804 39C131.804 39 132.298 39.0507 133.067 39.0177C132.836 39.7527 132.757 40.2427 132.757 40.2427C132.757 40.2427 133.247 40.1638 133.982 39.9327C133.949 40.7025 134 41.1961 134 41.1961C134 41.1961 134.453 40.9931 135.103 40.5796C135.27 41.3317 135.447 41.7956 135.447 41.7956C135.447 41.7956 135.832 41.4823 136.353 40.9146C136.709 41.5978 137 42 137 42C137 42 137.291 41.5978 137.647 40.9146C138.168 41.4822 138.553 41.7956 138.553 41.7956C138.553 41.7956 138.73 41.3319 138.897 40.5796C139.547 40.9931 140 41.1961 140 41.1961C140 41.1961 140.051 40.7025 140.018 39.9326C140.753 40.1637 141.243 40.2426 141.243 40.2426C141.243 40.2426 141.164 39.7527 140.933 39.0176C141.702 39.0507 142.196 39 142.196 39C142.196 39 141.993 38.5472 141.58 37.897C142.332 37.7296 142.796 37.5529 142.796 37.5529C142.796 37.5529 142.482 37.1681 141.915 36.647C142.598 36.2907 143 36 143 36C143 36 142.598 35.7093 141.915 35.353C142.482 34.8319 142.796 34.4471 142.796 34.4471C142.796 34.4471 142.332 34.2704 141.58 34.103C141.993 33.4529 142.196 33 142.196 33C142.196 33 141.702 32.9493 140.933 32.9823C141.164 32.2473 141.243 31.7573 141.243 31.7573C141.243 31.7573 140.753 31.8362 140.018 32.0673C140.051 31.2975 140 30.8039 140 30.8039C140 30.8039 139.547 31.0069 138.897 31.4204C138.73 30.6683 138.553 30.2045 138.553 30.2045C138.553 30.2045 138.168 30.5178 137.647 31.0855C137.291 30.4022 137 30 137 30C137 30 136.709 30.4022 136.353 31.0854C135.832 30.5178 135.447 30.2044 135.447 30.2044C135.447 30.2044 135.27 30.6681 135.103 31.4203C134.453 31.0069 134 30.8039 134 30.8039C134 30.8039 133.949 31.2975 133.982 32.0674C133.247 31.8363 132.757 31.7574 132.757 31.7574C132.757 31.7574 132.836 32.2474 133.067 32.9824C132.298 32.9493 131.804 33 131.804 33C131.804 33 132.007 33.4528 132.42 34.103C131.668 34.2704 131.205 34.4471 131.205 34.4471C131.205 34.4471 131.518 34.8319 132.086 35.353C131.402 35.7093 131 36 131 36C131 36 131.402 36.2907 132.085 36.647Z" fill="#3DE82C"/>
<path d="M58.016 74L49.448 59.792H49.808V64.688H45.776V63.488H48.152L47.744 63.8V58.544L48.032 59.048L45.776 58.592V57.32L50.672 57.2L59.096 71.144L58.736 71.168V66.2H62.768V67.4H60.44L60.8 67.064V74H58.016ZM45.776 74V72.728L48.152 72.176L47.744 72.704V67.064L48.152 67.4H45.776V66.2H49.808V72.704L49.4 72.176L51.776 72.728V74H45.776ZM58.736 64.688V58.544L59.144 59.048L56.768 58.592V57.32L62.768 57.2V58.472L60.416 59.072L60.8 58.544V63.8L60.488 63.488H62.768V64.688H58.736ZM72.9609 69.44L73.5849 69.968H64.8249L64.5609 68.216L72.5289 56.912L75.4089 57.2V68.504L74.7849 68.048H78.1689V69.968H74.7849L75.4089 69.44V74H72.9609V69.44ZM73.6329 68.048L73.0089 68.504V58.376L73.8249 58.52L66.5289 68.888L66.0729 68.048H73.6329ZM79.652 77.072C80.132 76.352 80.452 75.784 80.612 75.368C80.772 74.968 80.852 74.672 80.852 74.48C80.852 74.288 80.788 74.12 80.66 73.976C80.548 73.816 80.436 73.64 80.324 73.448C80.212 73.256 80.156 73.008 80.156 72.704C80.156 72.24 80.308 71.88 80.612 71.624C80.932 71.368 81.276 71.24 81.644 71.24C81.884 71.24 82.116 71.296 82.34 71.408C82.564 71.52 82.74 71.696 82.868 71.936C83.012 72.176 83.084 72.488 83.084 72.872C83.084 73.384 82.892 74.064 82.508 74.912C82.14 75.776 81.484 76.712 80.54 77.72L79.652 77.072ZM91.2022 74.216C90.4822 74.216 89.7782 74.12 89.0902 73.928C88.4182 73.736 87.8102 73.456 87.2662 73.088C86.7382 72.704 86.3142 72.232 85.9942 71.672C85.6902 71.096 85.5382 70.44 85.5382 69.704C85.5382 69.032 85.6582 68.44 85.8982 67.928C86.1542 67.4 86.4982 66.944 86.9302 66.56C87.3622 66.176 87.8342 65.864 88.3462 65.624C88.8742 65.368 89.3942 65.176 89.9062 65.048L91.3942 65.792C91.0262 65.904 90.6422 66.056 90.2422 66.248C89.8422 66.44 89.4662 66.68 89.1142 66.968C88.7622 67.24 88.4742 67.576 88.2502 67.976C88.0422 68.376 87.9382 68.848 87.9382 69.392C87.9382 70.016 88.0822 70.56 88.3702 71.024C88.6742 71.472 89.0902 71.824 89.6182 72.08C90.1462 72.32 90.7302 72.44 91.3702 72.44C92.0582 72.44 92.6662 72.312 93.1942 72.056C93.7222 71.8 94.1382 71.44 94.4422 70.976C94.7622 70.512 94.9222 69.976 94.9222 69.368C94.9222 68.76 94.7542 68.256 94.4182 67.856C94.0982 67.456 93.6742 67.128 93.1462 66.872C92.6182 66.6 92.0342 66.36 91.3942 66.152C90.7542 65.928 90.1142 65.696 89.4742 65.456C88.8342 65.216 88.2502 64.936 87.7222 64.616C87.1942 64.28 86.7702 63.864 86.4502 63.368C86.1302 62.856 85.9702 62.208 85.9702 61.424C85.9702 60.432 86.2342 59.608 86.7622 58.952C87.3062 58.28 88.0102 57.784 88.8742 57.464C89.7542 57.128 90.6742 56.96 91.6342 56.96C92.5942 56.96 93.4822 57.12 94.2982 57.44C95.1142 57.744 95.7782 58.208 96.2902 58.832C96.8022 59.456 97.0582 60.232 97.0582 61.16C97.0582 61.784 96.9302 62.328 96.6742 62.792C96.4342 63.256 96.1142 63.656 95.7142 63.992C95.3142 64.312 94.8662 64.576 94.3702 64.784C93.8742 64.992 93.3702 65.16 92.8582 65.288L91.1542 64.496C91.6022 64.4 92.0342 64.272 92.4502 64.112C92.8822 63.952 93.2662 63.752 93.6022 63.512C93.9382 63.256 94.2022 62.952 94.3942 62.6C94.5862 62.248 94.6822 61.84 94.6822 61.376C94.6822 60.784 94.5382 60.296 94.2502 59.912C93.9622 59.528 93.5782 59.24 93.0982 59.048C92.6342 58.84 92.1142 58.736 91.5382 58.736C90.9782 58.736 90.4502 58.832 89.9542 59.024C89.4742 59.216 89.0822 59.504 88.7782 59.888C88.4902 60.272 88.3462 60.752 88.3462 61.328C88.3462 61.92 88.5062 62.408 88.8262 62.792C89.1622 63.16 89.5942 63.472 90.1222 63.728C90.6502 63.984 91.2342 64.216 91.8742 64.424C92.5142 64.632 93.1542 64.856 93.7942 65.096C94.4342 65.336 95.0182 65.632 95.5462 65.984C96.0742 66.32 96.4982 66.752 96.8182 67.28C97.1542 67.808 97.3222 68.464 97.3222 69.248C97.3222 70.064 97.1462 70.784 96.7942 71.408C96.4582 72.016 95.9942 72.536 95.4022 72.968C94.8262 73.384 94.1782 73.696 93.4582 73.904C92.7382 74.112 91.9862 74.216 91.2022 74.216ZM106.216 74.24C104.808 74.24 103.648 73.928 102.736 73.304C101.84 72.664 101.176 71.72 100.744 70.472C100.312 69.208 100.096 67.632 100.096 65.744C100.096 63.792 100.32 62.168 100.768 60.872C101.216 59.576 101.92 58.6 102.88 57.944C103.84 57.288 105.064 56.96 106.552 56.96C108.008 56.96 109.168 57.264 110.032 57.872C110.912 58.464 111.544 59.376 111.928 60.608C112.328 61.84 112.528 63.392 112.528 65.264C112.528 67.248 112.296 68.904 111.832 70.232C111.384 71.56 110.696 72.56 109.768 73.232C108.84 73.904 107.656 74.24 106.216 74.24ZM106.288 72.344C107.152 72.344 107.848 72.096 108.376 71.6C108.92 71.088 109.32 70.328 109.576 69.32C109.832 68.296 109.968 67 109.984 65.432C110 63.832 109.88 62.552 109.624 61.592C109.368 60.632 108.976 59.936 108.448 59.504C107.936 59.072 107.272 58.856 106.456 58.856C105.56 58.856 104.824 59.104 104.248 59.6C103.688 60.096 103.28 60.848 103.024 61.856C102.768 62.848 102.64 64.112 102.64 65.648C102.64 67.168 102.768 68.424 103.024 69.416C103.28 70.408 103.672 71.144 104.2 71.624C104.744 72.104 105.44 72.344 106.288 72.344ZM121.544 74.24C120.136 74.24 118.976 73.928 118.064 73.304C117.168 72.664 116.504 71.72 116.072 70.472C115.64 69.208 115.424 67.632 115.424 65.744C115.424 63.792 115.648 62.168 116.096 60.872C116.544 59.576 117.248 58.6 118.208 57.944C119.168 57.288 120.392 56.96 121.88 56.96C123.336 56.96 124.496 57.264 125.36 57.872C126.24 58.464 126.872 59.376 127.256 60.608C127.656 61.84 127.856 63.392 127.856 65.264C127.856 67.248 127.624 68.904 127.16 70.232C126.712 71.56 126.024 72.56 125.096 73.232C124.168 73.904 122.984 74.24 121.544 74.24ZM121.616 72.344C122.48 72.344 123.176 72.096 123.704 71.6C124.248 71.088 124.648 70.328 124.904 69.32C125.16 68.296 125.296 67 125.312 65.432C125.328 63.832 125.208 62.552 124.952 61.592C124.696 60.632 124.304 59.936 123.776 59.504C123.264 59.072 122.6 58.856 121.784 58.856C120.888 58.856 120.152 59.104 119.576 59.6C119.016 60.096 118.608 60.848 118.352 61.856C118.096 62.848 117.968 64.112 117.968 65.648C117.968 67.168 118.096 68.424 118.352 69.416C118.608 70.408 119 71.144 119.528 71.624C120.072 72.104 120.768 72.344 121.616 72.344ZM129.152 77.072C129.632 76.352 129.952 75.784 130.112 75.368C130.272 74.968 130.352 74.672 130.352 74.48C130.352 74.288 130.288 74.12 130.16 73.976C130.048 73.816 129.936 73.64 129.824 73.448C129.712 73.256 129.656 73.008 129.656 72.704C129.656 72.24 129.808 71.88 130.112 71.624C130.432 71.368 130.776 71.24 131.144 71.24C131.384 71.24 131.616 71.296 131.84 71.408C132.064 71.52 132.24 71.696 132.368 71.936C132.512 72.176 132.584 72.488 132.584 72.872C132.584 73.384 132.392 74.064 132.008 74.912C131.64 75.776 130.984 76.712 130.04 77.72L129.152 77.072ZM140.037 74.24C138.629 74.24 137.469 73.928 136.557 73.304C135.661 72.664 134.997 71.72 134.565 70.472C134.133 69.208 133.917 67.632 133.917 65.744C133.917 63.792 134.141 62.168 134.589 60.872C135.037 59.576 135.741 58.6 136.701 57.944C137.661 57.288 138.885 56.96 140.373 56.96C141.829 56.96 142.989 57.264 143.853 57.872C144.733 58.464 145.365 59.376 145.749 60.608C146.149 61.84 146.349 63.392 146.349 65.264C146.349 67.248 146.117 68.904 145.653 70.232C145.205 71.56 144.517 72.56 143.589 73.232C142.661 73.904 141.477 74.24 140.037 74.24ZM140.109 72.344C140.973 72.344 141.669 72.096 142.197 71.6C142.741 71.088 143.141 70.328 143.397 69.32C143.653 68.296 143.789 67 143.805 65.432C143.821 63.832 143.701 62.552 143.445 61.592C143.189 60.632 142.797 59.936 142.269 59.504C141.757 59.072 141.093 58.856 140.277 58.856C139.381 58.856 138.645 59.104 138.069 59.6C137.509 60.096 137.101 60.848 136.845 61.856C136.589 62.848 136.461 64.112 136.461 65.648C136.461 67.168 136.589 68.424 136.845 69.416C137.101 70.408 137.493 71.144 138.021 71.624C138.565 72.104 139.261 72.344 140.109 72.344ZM155.365 74.24C153.957 74.24 152.797 73.928 151.885 73.304C150.989 72.664 150.325 71.72 149.893 70.472C149.461 69.208 149.245 67.632 149.245 65.744C149.245 63.792 149.469 62.168 149.917 60.872C150.365 59.576 151.069 58.6 152.029 57.944C152.989 57.288 154.213 56.96 155.701 56.96C157.157 56.96 158.317 57.264 159.181 57.872C160.061 58.464 160.693 59.376 161.077 60.608C161.477 61.84 161.677 63.392 161.677 65.264C161.677 67.248 161.445 68.904 160.981 70.232C160.533 71.56 159.845 72.56 158.917 73.232C157.989 73.904 156.805 74.24 155.365 74.24ZM155.437 72.344C156.301 72.344 156.997 72.096 157.525 71.6C158.069 71.088 158.469 70.328 158.725 69.32C158.981 68.296 159.117 67 159.133 65.432C159.149 63.832 159.029 62.552 158.773 61.592C158.517 60.632 158.125 59.936 157.597 59.504C157.085 59.072 156.421 58.856 155.605 58.856C154.709 58.856 153.973 59.104 153.397 59.6C152.837 60.096 152.429 60.848 152.173 61.856C151.917 62.848 151.789 64.112 151.789 65.648C151.789 67.168 151.917 68.424 152.173 69.416C152.429 70.408 152.821 71.144 153.349 71.624C153.893 72.104 154.589 72.344 155.437 72.344ZM170.693 74.24C169.285 74.24 168.125 73.928 167.213 73.304C166.317 72.664 165.653 71.72 165.221 70.472C164.789 69.208 164.573 67.632 164.573 65.744C164.573 63.792 164.797 62.168 165.245 60.872C165.693 59.576 166.397 58.6 167.357 57.944C168.317 57.288 169.541 56.96 171.029 56.96C172.485 56.96 173.645 57.264 174.509 57.872C175.389 58.464 176.021 59.376 176.405 60.608C176.805 61.84 177.005 63.392 177.005 65.264C177.005 67.248 176.773 68.904 176.309 70.232C175.861 71.56 175.173 72.56 174.245 73.232C173.317 73.904 172.133 74.24 170.693 74.24ZM170.765 72.344C171.629 72.344 172.325 72.096 172.853 71.6C173.397 71.088 173.797 70.328 174.053 69.32C174.309 68.296 174.445 67 174.461 65.432C174.477 63.832 174.357 62.552 174.101 61.592C173.845 60.632 173.453 59.936 172.925 59.504C172.413 59.072 171.749 58.856 170.933 58.856C170.037 58.856 169.301 59.104 168.725 59.6C168.165 60.096 167.757 60.848 167.501 61.856C167.245 62.848 167.117 64.112 167.117 65.648C167.117 67.168 167.245 68.424 167.501 69.416C167.757 70.408 168.149 71.144 168.677 71.624C169.221 72.104 169.917 72.344 170.765 72.344Z" fill="black"/>
<path d="M48.578 101.168C47.906 101.168 47.2947 101.037 46.744 100.776C46.2027 100.505 45.7687 100.09 45.442 99.53C45.1153 98.97 44.952 98.256 44.952 97.388V91.2H46.128V97.402C46.128 98.354 46.3567 99.0447 46.814 99.474C47.2713 99.9033 47.8687 100.118 48.606 100.118C49.3433 100.118 49.936 99.9033 50.384 99.474C50.832 99.0447 51.056 98.354 51.056 97.402V91.2H52.232V97.388C52.232 98.256 52.0687 98.97 51.742 99.53C51.4153 100.09 50.9767 100.505 50.426 100.776C49.8753 101.037 49.2593 101.168 48.578 101.168ZM56.8135 101.168C55.9828 101.168 55.2922 100.958 54.7415 100.538C54.1908 100.118 53.8688 99.5487 53.7755 98.83H54.9795C55.0542 99.194 55.2455 99.5113 55.5535 99.782C55.8708 100.043 56.2955 100.174 56.8275 100.174C57.3222 100.174 57.6862 100.071 57.9195 99.866C58.1528 99.6513 58.2695 99.3993 58.2695 99.11C58.2695 98.69 58.1155 98.41 57.8075 98.27C57.5088 98.13 57.0842 98.004 56.5335 97.892C56.1602 97.8173 55.7868 97.71 55.4135 97.57C55.0402 97.43 54.7275 97.234 54.4755 96.982C54.2235 96.7207 54.0975 96.38 54.0975 95.96C54.0975 95.3533 54.3215 94.8587 54.7695 94.476C55.2268 94.084 55.8428 93.888 56.6175 93.888C57.3548 93.888 57.9568 94.0747 58.4235 94.448C58.8995 94.812 59.1748 95.3347 59.2495 96.016H58.0875C58.0408 95.6613 57.8868 95.386 57.6255 95.19C57.3735 94.9847 57.0328 94.882 56.6035 94.882C56.1835 94.882 55.8568 94.9707 55.6235 95.148C55.3995 95.3253 55.2875 95.5587 55.2875 95.848C55.2875 96.128 55.4322 96.3473 55.7215 96.506C56.0202 96.6647 56.4215 96.8 56.9255 96.912C57.3548 97.0053 57.7608 97.122 58.1435 97.262C58.5355 97.3927 58.8528 97.5933 59.0955 97.864C59.3475 98.1253 59.4735 98.508 59.4735 99.012C59.4828 99.6373 59.2448 100.155 58.7595 100.566C58.2835 100.967 57.6348 101.168 56.8135 101.168ZM64.2755 101.168C63.6128 101.168 63.0248 101.019 62.5115 100.72C61.9982 100.412 61.5922 99.9873 61.2935 99.446C61.0042 98.9047 60.8595 98.2653 60.8595 97.528C60.8595 96.8 61.0042 96.1653 61.2935 95.624C61.5828 95.0733 61.9842 94.6487 62.4975 94.35C63.0202 94.042 63.6222 93.888 64.3035 93.888C64.9755 93.888 65.5542 94.042 66.0395 94.35C66.5342 94.6487 66.9122 95.0453 67.1735 95.54C67.4348 96.0347 67.5655 96.5667 67.5655 97.136C67.5655 97.2387 67.5608 97.3413 67.5515 97.444C67.5515 97.5467 67.5515 97.6633 67.5515 97.794H62.0215C62.0495 98.326 62.1708 98.7693 62.3855 99.124C62.6095 99.4693 62.8848 99.7307 63.2115 99.908C63.5475 100.085 63.9022 100.174 64.2755 100.174C64.7608 100.174 65.1668 100.062 65.4935 99.838C65.8202 99.614 66.0582 99.3107 66.2075 98.928H67.3695C67.1828 99.572 66.8235 100.109 66.2915 100.538C65.7688 100.958 65.0968 101.168 64.2755 101.168ZM64.2755 94.882C63.7155 94.882 63.2162 95.0547 62.7775 95.4C62.3482 95.736 62.1008 96.2307 62.0355 96.884H66.4035C66.3755 96.2587 66.1608 95.7687 65.7595 95.414C65.3582 95.0593 64.8635 94.882 64.2755 94.882ZM69.1242 101V94.056H70.1882L70.2862 95.386C70.5009 94.9287 70.8275 94.5647 71.2662 94.294C71.7049 94.0233 72.2462 93.888 72.8902 93.888V95.12H72.5682C72.1575 95.12 71.7795 95.1947 71.4342 95.344C71.0889 95.484 70.8135 95.7267 70.6082 96.072C70.4029 96.4173 70.3002 96.8933 70.3002 97.5V101H69.1242ZM76.8701 101.168C76.0395 101.168 75.3488 100.958 74.7981 100.538C74.2475 100.118 73.9255 99.5487 73.8321 98.83H75.0361C75.1108 99.194 75.3021 99.5113 75.6101 99.782C75.9275 100.043 76.3521 100.174 76.8841 100.174C77.3788 100.174 77.7428 100.071 77.9761 99.866C78.2095 99.6513 78.3261 99.3993 78.3261 99.11C78.3261 98.69 78.1721 98.41 77.8641 98.27C77.5655 98.13 77.1408 98.004 76.5901 97.892C76.2168 97.8173 75.8435 97.71 75.4701 97.57C75.0968 97.43 74.7841 97.234 74.5321 96.982C74.2801 96.7207 74.1541 96.38 74.1541 95.96C74.1541 95.3533 74.3781 94.8587 74.8261 94.476C75.2835 94.084 75.8995 93.888 76.6741 93.888C77.4115 93.888 78.0135 94.0747 78.4801 94.448C78.9561 94.812 79.2315 95.3347 79.3061 96.016H78.1441C78.0975 95.6613 77.9435 95.386 77.6821 95.19C77.4301 94.9847 77.0895 94.882 76.6601 94.882C76.2401 94.882 75.9135 94.9707 75.6801 95.148C75.4561 95.3253 75.3441 95.5587 75.3441 95.848C75.3441 96.128 75.4888 96.3473 75.7781 96.506C76.0768 96.6647 76.4781 96.8 76.9821 96.912C77.4115 97.0053 77.8175 97.122 78.2001 97.262C78.5921 97.3927 78.9095 97.5933 79.1521 97.864C79.4041 98.1253 79.5301 98.508 79.5301 99.012C79.5395 99.6373 79.3015 100.155 78.8161 100.566C78.3401 100.967 77.6915 101.168 76.8701 101.168ZM81.6161 101.07C81.3828 101.07 81.1868 100.995 81.0281 100.846C80.8788 100.687 80.8041 100.496 80.8041 100.272C80.8041 100.048 80.8788 99.8613 81.0281 99.712C81.1868 99.5533 81.3828 99.474 81.6161 99.474C81.8401 99.474 82.0268 99.5533 82.1761 99.712C82.3348 99.8613 82.4141 100.048 82.4141 100.272C82.4141 100.496 82.3348 100.687 82.1761 100.846C82.0268 100.995 81.8401 101.07 81.6161 101.07ZM81.6161 95.484C81.3828 95.484 81.1868 95.4093 81.0281 95.26C80.8788 95.1013 80.8041 94.91 80.8041 94.686C80.8041 94.462 80.8788 94.2753 81.0281 94.126C81.1868 93.9673 81.3828 93.888 81.6161 93.888C81.8401 93.888 82.0268 93.9673 82.1761 94.126C82.3348 94.2753 82.4141 94.462 82.4141 94.686C82.4141 94.91 82.3348 95.1013 82.1761 95.26C82.0268 95.4093 81.8401 95.484 81.6161 95.484Z" fill="#2C9BE8"/>
<path d="M92.27 101.168C91.626 101.168 91.0473 101.051 90.534 100.818C90.0207 100.575 89.6147 100.244 89.316 99.824C89.0267 99.3947 88.882 98.9 88.882 98.34C88.882 97.7427 89.0547 97.206 89.4 96.73C89.7547 96.254 90.2213 95.9367 90.8 95.778C90.268 95.6007 89.8573 95.316 89.568 94.924C89.2787 94.532 89.134 94.1027 89.134 93.636C89.134 93.16 89.26 92.726 89.512 92.334C89.764 91.9327 90.1233 91.6153 90.59 91.382C91.0567 91.1487 91.6167 91.032 92.27 91.032C92.9233 91.032 93.4833 91.1487 93.95 91.382C94.4167 91.6153 94.776 91.9327 95.028 92.334C95.28 92.726 95.406 93.16 95.406 93.636C95.406 94.0933 95.2613 94.5227 94.972 94.924C94.6827 95.316 94.272 95.6007 93.74 95.778C94.3187 95.9367 94.7807 96.254 95.126 96.73C95.4807 97.206 95.658 97.7427 95.658 98.34C95.658 98.9 95.5087 99.3947 95.21 99.824C94.9207 100.244 94.5193 100.575 94.006 100.818C93.4927 101.051 92.914 101.168 92.27 101.168ZM92.27 95.358C92.8673 95.358 93.3387 95.2087 93.684 94.91C94.0387 94.602 94.216 94.2007 94.216 93.706C94.216 93.1553 94.0433 92.74 93.698 92.46C93.3527 92.18 92.8767 92.04 92.27 92.04C91.6633 92.04 91.1873 92.18 90.842 92.46C90.506 92.74 90.338 93.1553 90.338 93.706C90.338 94.2007 90.5107 94.602 90.856 94.91C91.2013 95.2087 91.6727 95.358 92.27 95.358ZM92.27 100.132C93.0073 100.132 93.558 99.964 93.922 99.628C94.2953 99.2827 94.482 98.83 94.482 98.27C94.482 97.6353 94.2813 97.1547 93.88 96.828C93.4787 96.5013 92.942 96.338 92.27 96.338C91.598 96.338 91.0613 96.5013 90.66 96.828C90.2587 97.1547 90.058 97.6353 90.058 98.27C90.058 98.83 90.24 99.2827 90.604 99.628C90.9773 99.964 91.5327 100.132 92.27 100.132Z" fill="#414141"/>
<path d="M110.036 101V91.2H111.408L114.936 98.032L118.436 91.2H119.822V101H118.646V93.3L115.37 99.6H114.488L111.212 93.314V101H110.036ZM124.984 101.168C124.33 101.168 123.742 101.019 123.22 100.72C122.697 100.421 122.282 100.001 121.974 99.46C121.675 98.9093 121.526 98.2653 121.526 97.528C121.526 96.7907 121.68 96.1513 121.988 95.61C122.296 95.0593 122.711 94.6347 123.234 94.336C123.766 94.0373 124.358 93.888 125.012 93.888C125.665 93.888 126.253 94.0373 126.776 94.336C127.298 94.6347 127.709 95.0593 128.008 95.61C128.316 96.1513 128.47 96.7907 128.47 97.528C128.47 98.2653 128.316 98.9093 128.008 99.46C127.7 100.001 127.28 100.421 126.748 100.72C126.225 101.019 125.637 101.168 124.984 101.168ZM124.984 100.16C125.385 100.16 125.758 100.062 126.104 99.866C126.449 99.67 126.729 99.376 126.944 98.984C127.158 98.592 127.266 98.1067 127.266 97.528C127.266 96.9493 127.158 96.464 126.944 96.072C126.738 95.68 126.463 95.386 126.118 95.19C125.772 94.994 125.404 94.896 125.012 94.896C124.61 94.896 124.237 94.994 123.892 95.19C123.546 95.386 123.266 95.68 123.052 96.072C122.837 96.464 122.73 96.9493 122.73 97.528C122.73 98.1067 122.837 98.592 123.052 98.984C123.266 99.376 123.542 99.67 123.878 99.866C124.223 100.062 124.592 100.16 124.984 100.16ZM130.105 101V94.056H131.169L131.239 95.302C131.463 94.8633 131.785 94.518 132.205 94.266C132.625 94.014 133.101 93.888 133.633 93.888C134.454 93.888 135.107 94.14 135.593 94.644C136.087 95.1387 136.335 95.904 136.335 96.94V101H135.159V97.066C135.159 95.6193 134.561 94.896 133.367 94.896C132.769 94.896 132.27 95.1153 131.869 95.554C131.477 95.9833 131.281 96.5993 131.281 97.402V101H130.105ZM140.86 101C140.226 101 139.726 100.846 139.362 100.538C138.998 100.23 138.816 99.6747 138.816 98.872V95.05H137.612V94.056H138.816L138.97 92.39H139.992V94.056H142.036V95.05H139.992V98.872C139.992 99.3107 140.081 99.6093 140.258 99.768C140.436 99.9173 140.748 99.992 141.196 99.992H141.924V101H140.86ZM143.53 101V90.92H144.706V95.246C144.94 94.8167 145.271 94.4853 145.7 94.252C146.13 94.0093 146.596 93.888 147.1 93.888C147.903 93.888 148.547 94.14 149.032 94.644C149.518 95.1387 149.76 95.904 149.76 96.94V101H148.598V97.066C148.598 95.6193 148.015 94.896 146.848 94.896C146.242 94.896 145.733 95.1153 145.322 95.554C144.912 95.9833 144.706 96.5993 144.706 97.402V101H143.53ZM151.542 101V90.92H152.718V101H151.542ZM155.402 104.08L157.124 100.328H156.718L153.96 94.056H155.234L157.53 99.46L159.966 94.056H161.184L156.634 104.08H155.402ZM166.2 101V91.2H169.21C170.937 91.2 172.206 91.6387 173.018 92.516C173.839 93.3933 174.25 94.5973 174.25 96.128C174.25 97.6307 173.839 98.8207 173.018 99.698C172.206 100.566 170.937 101 169.21 101H166.2ZM167.376 100.02H169.182C170.134 100.02 170.89 99.866 171.45 99.558C172.019 99.2407 172.425 98.7927 172.668 98.214C172.911 97.626 173.032 96.9307 173.032 96.128C173.032 95.3067 172.911 94.602 172.668 94.014C172.425 93.426 172.019 92.9733 171.45 92.656C170.89 92.3387 170.134 92.18 169.182 92.18H167.376V100.02ZM178.412 101.168C177.591 101.168 176.937 100.921 176.452 100.426C175.967 99.922 175.724 99.152 175.724 98.116V94.056H176.9V97.99C176.9 99.4367 177.493 100.16 178.678 100.16C179.285 100.16 179.784 99.9453 180.176 99.516C180.577 99.0773 180.778 98.4567 180.778 97.654V94.056H181.954V101H180.89L180.806 99.754C180.591 100.193 180.269 100.538 179.84 100.79C179.42 101.042 178.944 101.168 178.412 101.168ZM187.012 101.168C186.349 101.168 185.761 101.019 185.248 100.72C184.734 100.412 184.328 99.9873 184.03 99.446C183.74 98.9047 183.596 98.2653 183.596 97.528C183.596 96.8 183.74 96.1653 184.03 95.624C184.319 95.0733 184.72 94.6487 185.234 94.35C185.756 94.042 186.358 93.888 187.04 93.888C187.712 93.888 188.29 94.042 188.776 94.35C189.27 94.6487 189.648 95.0453 189.91 95.54C190.171 96.0347 190.302 96.5667 190.302 97.136C190.302 97.2387 190.297 97.3413 190.288 97.444C190.288 97.5467 190.288 97.6633 190.288 97.794H184.758C184.786 98.326 184.907 98.7693 185.122 99.124C185.346 99.4693 185.621 99.7307 185.948 99.908C186.284 100.085 186.638 100.174 187.012 100.174C187.497 100.174 187.903 100.062 188.23 99.838C188.556 99.614 188.794 99.3107 188.944 98.928H190.106C189.919 99.572 189.56 100.109 189.028 100.538C188.505 100.958 187.833 101.168 187.012 101.168ZM187.012 94.882C186.452 94.882 185.952 95.0547 185.514 95.4C185.084 95.736 184.837 96.2307 184.772 96.884H189.14C189.112 96.2587 188.897 95.7687 188.496 95.414C188.094 95.0593 187.6 94.882 187.012 94.882ZM192.267 101.07C192.033 101.07 191.837 100.995 191.679 100.846C191.529 100.687 191.455 100.496 191.455 100.272C191.455 100.048 191.529 99.8613 191.679 99.712C191.837 99.5533 192.033 99.474 192.267 99.474C192.491 99.474 192.677 99.5533 192.827 99.712C192.985 99.8613 193.065 100.048 193.065 100.272C193.065 100.496 192.985 100.687 192.827 100.846C192.677 100.995 192.491 101.07 192.267 101.07ZM192.267 95.484C192.033 95.484 191.837 95.4093 191.679 95.26C191.529 95.1013 191.455 94.91 191.455 94.686C191.455 94.462 191.529 94.2753 191.679 94.126C191.837 93.9673 192.033 93.888 192.267 93.888C192.491 93.888 192.677 93.9673 192.827 94.126C192.985 94.2753 193.065 94.462 193.065 94.686C193.065 94.91 192.985 95.1013 192.827 95.26C192.677 95.4093 192.491 95.484 192.267 95.484Z" fill="#2C9BE8"/>
<path d="M203.232 101V97.402H202.14V96.506H203.232V95.358H202.14V94.462H203.232V91.004H204.688L206.018 94.462H207.67V91.004H208.776V94.462H209.868V95.358H208.776V96.506H209.868V97.402H208.776V101H207.306L205.976 97.402H204.324V101H203.232ZM204.324 96.506H205.64L205.22 95.358H204.296L204.324 96.506ZM207.67 99.026H207.726L207.684 97.402H207.096L207.67 99.026ZM204.296 94.462H204.884L204.296 92.726H204.24L204.296 94.462ZM206.76 96.506H207.698L207.67 95.358H206.34L206.76 96.506ZM214.576 101.168C213.866 101.168 213.269 101.037 212.784 100.776C212.298 100.505 211.906 100.146 211.608 99.698C211.318 99.25 211.104 98.7507 210.964 98.2C210.833 97.64 210.768 97.0707 210.768 96.492C210.768 95.4093 210.917 94.462 211.216 93.65C211.514 92.8287 211.944 92.1893 212.504 91.732C213.073 91.2653 213.759 91.032 214.562 91.032C215.178 91.032 215.705 91.1533 216.144 91.396C216.582 91.6387 216.928 91.9653 217.18 92.376C217.441 92.7773 217.604 93.2253 217.67 93.72H216.578C216.475 93.188 216.246 92.7773 215.892 92.488C215.537 92.1987 215.089 92.054 214.548 92.054C213.81 92.054 213.19 92.404 212.686 93.104C212.191 93.7947 211.925 94.8773 211.888 96.352C212.112 95.9133 212.466 95.5353 212.952 95.218C213.446 94.8913 214.039 94.728 214.73 94.728C215.29 94.728 215.812 94.8587 216.298 95.12C216.792 95.3813 217.194 95.75 217.502 96.226C217.81 96.6927 217.964 97.2433 217.964 97.878C217.964 98.4287 217.828 98.956 217.558 99.46C217.287 99.964 216.895 100.375 216.382 100.692C215.878 101.009 215.276 101.168 214.576 101.168ZM214.492 100.132C214.93 100.132 215.322 100.039 215.668 99.852C216.013 99.6653 216.284 99.4087 216.48 99.082C216.676 98.746 216.774 98.3633 216.774 97.934C216.774 97.2713 216.554 96.744 216.116 96.352C215.686 95.9507 215.145 95.75 214.492 95.75C214.053 95.75 213.661 95.8527 213.316 96.058C212.97 96.254 212.695 96.52 212.49 96.856C212.294 97.192 212.196 97.556 212.196 97.948C212.196 98.368 212.294 98.746 212.49 99.082C212.695 99.4087 212.97 99.6653 213.316 99.852C213.661 100.039 214.053 100.132 214.492 100.132ZM223.688 101.168C222.82 101.168 222.069 100.958 221.434 100.538C220.809 100.109 220.328 99.516 219.992 98.76C219.656 97.9947 219.488 97.108 219.488 96.1C219.488 95.092 219.656 94.21 219.992 93.454C220.328 92.6887 220.809 92.096 221.434 91.676C222.069 91.2467 222.82 91.032 223.688 91.032C224.556 91.032 225.303 91.2467 225.928 91.676C226.553 92.096 227.034 92.6887 227.37 93.454C227.706 94.21 227.874 95.092 227.874 96.1C227.874 97.108 227.706 97.9947 227.37 98.76C227.034 99.516 226.553 100.109 225.928 100.538C225.303 100.958 224.556 101.168 223.688 101.168ZM223.688 100.132C224.257 100.132 224.766 99.9733 225.214 99.656C225.671 99.3293 226.026 98.8673 226.278 98.27C226.539 97.6633 226.67 96.94 226.67 96.1C226.67 95.26 226.539 94.5413 226.278 93.944C226.026 93.3467 225.671 92.8893 225.214 92.572C224.766 92.2453 224.257 92.082 223.688 92.082C223.109 92.082 222.596 92.2453 222.148 92.572C221.7 92.8893 221.345 93.3467 221.084 93.944C220.823 94.5413 220.692 95.26 220.692 96.1C220.692 96.94 220.823 97.6633 221.084 98.27C221.345 98.8673 221.7 99.3293 222.148 99.656C222.596 99.9733 223.109 100.132 223.688 100.132ZM233.395 101.168C232.527 101.168 231.776 100.958 231.141 100.538C230.516 100.109 230.035 99.516 229.699 98.76C229.363 97.9947 229.195 97.108 229.195 96.1C229.195 95.092 229.363 94.21 229.699 93.454C230.035 92.6887 230.516 92.096 231.141 91.676C231.776 91.2467 232.527 91.032 233.395 91.032C234.263 91.032 235.01 91.2467 235.635 91.676C236.26 92.096 236.741 92.6887 237.077 93.454C237.413 94.21 237.581 95.092 237.581 96.1C237.581 97.108 237.413 97.9947 237.077 98.76C236.741 99.516 236.26 100.109 235.635 100.538C235.01 100.958 234.263 101.168 233.395 101.168ZM233.395 100.132C233.964 100.132 234.473 99.9733 234.921 99.656C235.378 99.3293 235.733 98.8673 235.985 98.27C236.246 97.6633 236.377 96.94 236.377 96.1C236.377 95.26 236.246 94.5413 235.985 93.944C235.733 93.3467 235.378 92.8893 234.921 92.572C234.473 92.2453 233.964 92.082 233.395 92.082C232.816 92.082 232.303 92.2453 231.855 92.572C231.407 92.8893 231.052 93.3467 230.791 93.944C230.53 94.5413 230.399 95.26 230.399 96.1C230.399 96.94 230.53 97.6633 230.791 98.27C231.052 98.8673 231.407 99.3293 231.855 99.656C232.303 99.9733 232.816 100.132 233.395 100.132ZM237.848 102.666L238.66 99.572H239.878L238.66 102.666H237.848ZM245.167 101.168C244.299 101.168 243.547 100.958 242.913 100.538C242.287 100.109 241.807 99.516 241.471 98.76C241.135 97.9947 240.967 97.108 240.967 96.1C240.967 95.092 241.135 94.21 241.471 93.454C241.807 92.6887 242.287 92.096 242.913 91.676C243.547 91.2467 244.299 91.032 245.167 91.032C246.035 91.032 246.781 91.2467 247.407 91.676C248.032 92.096 248.513 92.6887 248.849 93.454C249.185 94.21 249.353 95.092 249.353 96.1C249.353 97.108 249.185 97.9947 248.849 98.76C248.513 99.516 248.032 100.109 247.407 100.538C246.781 100.958 246.035 101.168 245.167 101.168ZM245.167 100.132C245.736 100.132 246.245 99.9733 246.693 99.656C247.15 99.3293 247.505 98.8673 247.757 98.27C248.018 97.6633 248.149 96.94 248.149 96.1C248.149 95.26 248.018 94.5413 247.757 93.944C247.505 93.3467 247.15 92.8893 246.693 92.572C246.245 92.2453 245.736 92.082 245.167 92.082C244.588 92.082 244.075 92.2453 243.627 92.572C243.179 92.8893 242.824 93.3467 242.563 93.944C242.301 94.5413 242.171 95.26 242.171 96.1C242.171 96.94 242.301 97.6633 242.563 98.27C242.824 98.8673 243.179 99.3293 243.627 99.656C244.075 99.9733 244.588 100.132 245.167 100.132ZM254.874 101.168C254.006 101.168 253.254 100.958 252.62 100.538C251.994 100.109 251.514 99.516 251.178 98.76C250.842 97.9947 250.674 97.108 250.674 96.1C250.674 95.092 250.842 94.21 251.178 93.454C251.514 92.6887 251.994 92.096 252.62 91.676C253.254 91.2467 254.006 91.032 254.874 91.032C255.742 91.032 256.488 91.2467 257.114 91.676C257.739 92.096 258.22 92.6887 258.556 93.454C258.892 94.21 259.06 95.092 259.06 96.1C259.06 97.108 258.892 97.9947 258.556 98.76C258.22 99.516 257.739 100.109 257.114 100.538C256.488 100.958 255.742 101.168 254.874 101.168ZM254.874 100.132C255.443 100.132 255.952 99.9733 256.4 99.656C256.857 99.3293 257.212 98.8673 257.464 98.27C257.725 97.6633 257.856 96.94 257.856 96.1C257.856 95.26 257.725 94.5413 257.464 93.944C257.212 93.3467 256.857 92.8893 256.4 92.572C255.952 92.2453 255.443 92.082 254.874 92.082C254.295 92.082 253.782 92.2453 253.334 92.572C252.886 92.8893 252.531 93.3467 252.27 93.944C252.008 94.5413 251.878 95.26 251.878 96.1C251.878 96.94 252.008 97.6633 252.27 98.27C252.531 98.8673 252.886 99.3293 253.334 99.656C253.782 99.9733 254.295 100.132 254.874 100.132ZM264.581 101.168C263.713 101.168 262.961 100.958 262.327 100.538C261.701 100.109 261.221 99.516 260.885 98.76C260.549 97.9947 260.381 97.108 260.381 96.1C260.381 95.092 260.549 94.21 260.885 93.454C261.221 92.6887 261.701 92.096 262.327 91.676C262.961 91.2467 263.713 91.032 264.581 91.032C265.449 91.032 266.195 91.2467 266.821 91.676C267.446 92.096 267.927 92.6887 268.263 93.454C268.599 94.21 268.767 95.092 268.767 96.1C268.767 97.108 268.599 97.9947 268.263 98.76C267.927 99.516 267.446 100.109 266.821 100.538C266.195 100.958 265.449 101.168 264.581 101.168ZM264.581 100.132C265.15 100.132 265.659 99.9733 266.107 99.656C266.564 99.3293 266.919 98.8673 267.171 98.27C267.432 97.6633 267.563 96.94 267.563 96.1C267.563 95.26 267.432 94.5413 267.171 93.944C266.919 93.3467 266.564 92.8893 266.107 92.572C265.659 92.2453 265.15 92.082 264.581 92.082C264.002 92.082 263.489 92.2453 263.041 92.572C262.593 92.8893 262.238 93.3467 261.977 93.944C261.715 94.5413 261.585 95.26 261.585 96.1C261.585 96.94 261.715 97.6633 261.977 98.27C262.238 98.8673 262.593 99.3293 263.041 99.656C263.489 99.9733 264.002 100.132 264.581 100.132Z" fill="#414141"/>
<defs>
<filter id="filter0_d_579_50" x="0" y="0" width="368" height="148" filterUnits="userSpaceOnUse" color-interpolation-filters="sRGB">
<feFlood flood-opacity="0" result="BackgroundImageFix"/>
<feColorMatrix in="SourceAlpha" type="matrix" values="0 0 0 0 0 0 0 0 0 0 0 0 0 0 0 0 0 0 127 0" result="hardAlpha"/>
<feOffset dx="4" dy="8"/>
<feGaussianBlur stdDeviation="12"/>
<feComposite in2="hardAlpha" operator="out"/>
<feColorMatrix type="matrix" values="0 0 0 0 0 0 0 0 0 0 0 0 0 0 0 0 0 0 0.08 0"/>
<feBlend mode="normal" in2="BackgroundImageFix" result="effect1_dropShadow_579_50"/>
<feBlend mode="normal" in="SourceGraphic" in2="effect1_dropShadow_579_50" result="shape"/>
</filter>
</defs>
</svg>
