<svg width="300" height="148" viewBox="0 0 300 148" fill="none" xmlns="http://www.w3.org/2000/svg">
<g filter="url(#filter0_d_579_68)">
<rect x="20" y="16" width="252" height="100" rx="8" fill="white"/>
</g>
<path d="M47.808 41V30.904H44.464V29.8H52.496V30.904H49.152V41H47.808ZM53.1509 41V33.064H54.3669L54.4789 34.584C54.7242 34.0613 55.0975 33.6453 55.5989 33.336C56.1002 33.0267 56.7189 32.872 57.4549 32.872V34.28H57.0869C56.6175 34.28 56.1855 34.3653 55.7909 34.536C55.3962 34.696 55.0815 34.9733 54.8469 35.368C54.6122 35.7627 54.4949 36.3067 54.4949 37V41H53.1509ZM61.6034 41.192C60.942 41.192 60.3927 41.08 59.9554 40.856C59.518 40.632 59.1927 40.3333 58.9794 39.96C58.766 39.5867 58.6594 39.1813 58.6594 38.744C58.6594 37.9333 58.9687 37.3093 59.5874 36.872C60.206 36.4347 61.0487 36.216 62.1154 36.216H64.2594V36.12C64.2594 35.4267 64.078 34.904 63.7154 34.552C63.3527 34.1893 62.8674 34.008 62.2594 34.008C61.7367 34.008 61.2834 34.1413 60.8994 34.408C60.526 34.664 60.2914 35.0427 60.1954 35.544H58.8194C58.8727 34.968 59.0647 34.4827 59.3954 34.088C59.7367 33.6933 60.158 33.3947 60.6594 33.192C61.1607 32.9787 61.694 32.872 62.2594 32.872C63.3687 32.872 64.2007 33.1707 64.7554 33.768C65.3207 34.3547 65.6034 35.1387 65.6034 36.12V41H64.4034L64.3234 39.576C64.0994 40.024 63.7687 40.408 63.3314 40.728C62.9047 41.0373 62.3287 41.192 61.6034 41.192ZM61.8114 40.056C62.3234 40.056 62.7607 39.9227 63.1234 39.656C63.4967 39.3893 63.7794 39.0427 63.9714 38.616C64.1634 38.1893 64.2594 37.7413 64.2594 37.272V37.256H62.2274C61.438 37.256 60.878 37.3947 60.5474 37.672C60.2274 37.9387 60.0674 38.2747 60.0674 38.68C60.0674 39.096 60.2167 39.432 60.5154 39.688C60.8247 39.9333 61.2567 40.056 61.8114 40.056ZM71.2196 41.192C70.4303 41.192 69.737 41.0107 69.1396 40.648C68.553 40.2853 68.0943 39.7893 67.7636 39.16C67.4436 38.5307 67.2836 37.816 67.2836 37.016C67.2836 36.216 67.449 35.5067 67.7796 34.888C68.1103 34.2587 68.569 33.768 69.1556 33.416C69.7423 33.0533 70.4356 32.872 71.2356 32.872C71.8863 32.872 72.4623 33.0053 72.9636 33.272C73.465 33.5387 73.8543 33.912 74.1316 34.392V29.48H75.4756V41H74.2596L74.1316 39.688C73.8756 40.072 73.5076 40.4187 73.0276 40.728C72.5476 41.0373 71.945 41.192 71.2196 41.192ZM71.3636 40.024C71.897 40.024 72.3663 39.9013 72.7716 39.656C73.1876 39.4 73.5076 39.048 73.7316 38.6C73.9663 38.152 74.0836 37.6293 74.0836 37.032C74.0836 36.4347 73.9663 35.912 73.7316 35.464C73.5076 35.016 73.1876 34.6693 72.7716 34.424C72.3663 34.168 71.897 34.04 71.3636 34.04C70.841 34.04 70.3716 34.168 69.9556 34.424C69.5503 34.6693 69.2303 35.016 68.9956 35.464C68.7716 35.912 68.6596 36.4347 68.6596 37.032C68.6596 37.6293 68.7716 38.152 68.9956 38.6C69.2303 39.048 69.5503 39.4 69.9556 39.656C70.3716 39.9013 70.841 40.024 71.3636 40.024ZM81.2345 41.192C80.4772 41.192 79.8052 41.0213 79.2185 40.68C78.6318 40.328 78.1678 39.8427 77.8265 39.224C77.4958 38.6053 77.3305 37.8747 77.3305 37.032C77.3305 36.2 77.4958 35.4747 77.8265 34.856C78.1572 34.2267 78.6158 33.7413 79.2025 33.4C79.7998 33.048 80.4878 32.872 81.2665 32.872C82.0345 32.872 82.6958 33.048 83.2505 33.4C83.8158 33.7413 84.2478 34.1947 84.5465 34.76C84.8452 35.3253 84.9945 35.9333 84.9945 36.584C84.9945 36.7013 84.9892 36.8187 84.9785 36.936C84.9785 37.0533 84.9785 37.1867 84.9785 37.336H78.6585C78.6905 37.944 78.8292 38.4507 79.0745 38.856C79.3305 39.2507 79.6452 39.5493 80.0185 39.752C80.4025 39.9547 80.8078 40.056 81.2345 40.056C81.7892 40.056 82.2532 39.928 82.6265 39.672C82.9998 39.416 83.2718 39.0693 83.4425 38.632H84.7705C84.5572 39.368 84.1465 39.9813 83.5385 40.472C82.9412 40.952 82.1732 41.192 81.2345 41.192ZM81.2345 34.008C80.5945 34.008 80.0238 34.2053 79.5225 34.6C79.0318 34.984 78.7492 35.5493 78.6745 36.296H83.6665C83.6345 35.5813 83.3892 35.0213 82.9305 34.616C82.4718 34.2107 81.9065 34.008 81.2345 34.008ZM93.3943 41.016L90.3223 29.8H91.7623L94.1783 39.416L96.9303 29.8H98.4183L101.09 39.416L103.538 29.8H104.978L101.842 41H100.306L97.6343 31.752L94.8983 41L93.3943 41.016ZM109.283 41.192C108.536 41.192 107.864 41.0213 107.267 40.68C106.669 40.3387 106.195 39.8587 105.843 39.24C105.501 38.6107 105.331 37.8747 105.331 37.032C105.331 36.1893 105.507 35.4587 105.859 34.84C106.211 34.2107 106.685 33.7253 107.283 33.384C107.891 33.0427 108.568 32.872 109.315 32.872C110.061 32.872 110.733 33.0427 111.331 33.384C111.928 33.7253 112.397 34.2107 112.739 34.84C113.091 35.4587 113.267 36.1893 113.267 37.032C113.267 37.8747 113.091 38.6107 112.739 39.24C112.387 39.8587 111.907 40.3387 111.299 40.68C110.701 41.0213 110.029 41.192 109.283 41.192ZM109.283 40.04C109.741 40.04 110.168 39.928 110.563 39.704C110.957 39.48 111.277 39.144 111.523 38.696C111.768 38.248 111.891 37.6933 111.891 37.032C111.891 36.3707 111.768 35.816 111.523 35.368C111.288 34.92 110.973 34.584 110.579 34.36C110.184 34.136 109.763 34.024 109.315 34.024C108.856 34.024 108.429 34.136 108.035 34.36C107.64 34.584 107.32 34.92 107.075 35.368C106.829 35.816 106.707 36.3707 106.707 37.032C106.707 37.6933 106.829 38.248 107.075 38.696C107.32 39.144 107.635 39.48 108.019 39.704C108.413 39.928 108.835 40.04 109.283 40.04ZM115.135 41V33.064H116.351L116.463 34.584C116.709 34.0613 117.082 33.6453 117.583 33.336C118.085 33.0267 118.703 32.872 119.439 32.872V34.28H119.071C118.602 34.28 118.17 34.3653 117.775 34.536C117.381 34.696 117.066 34.9733 116.831 35.368C116.597 35.7627 116.479 36.3067 116.479 37V41H115.135ZM124.084 41C123.358 41 122.788 40.824 122.372 40.472C121.956 40.12 121.748 39.4853 121.748 38.568V34.2H120.372V33.064H121.748L121.924 31.16H123.092V33.064H125.428V34.2H123.092V38.568C123.092 39.0693 123.193 39.4107 123.396 39.592C123.598 39.7627 123.956 39.848 124.468 39.848H125.3V41H124.084ZM127.135 41V29.48H128.479V34.424C128.746 33.9333 129.125 33.5547 129.615 33.288C130.106 33.0107 130.639 32.872 131.215 32.872C132.133 32.872 132.869 33.16 133.423 33.736C133.978 34.3013 134.255 35.176 134.255 36.36V41H132.927V36.504C132.927 34.8507 132.261 34.024 130.927 34.024C130.234 34.024 129.653 34.2747 129.183 34.776C128.714 35.2667 128.479 35.9707 128.479 36.888V41H127.135Z" fill="#818181"/>
<path d="M144.048 32.8308C143.984 32.8946 143.984 32.9981 144.048 33.0617L144.572 33.5864L145.777 34.7912C145.841 34.855 145.944 34.855 146.008 34.7912L146.417 34.382C146.481 34.3183 146.481 34.215 146.417 34.1511L145.328 33.0618C145.264 32.9981 145.264 32.8946 145.328 32.8309L146.417 31.7415C146.481 31.6778 146.481 31.5745 146.417 31.5107L146.008 31.1016C145.944 31.0378 145.841 31.0378 145.777 31.1016L144.572 32.3063L144.048 32.8308Z" fill="#E82C9B"/>
<path d="M153.198 32.9467C153.198 34.574 151.878 35.8931 150.251 35.8931C148.624 35.8931 147.305 34.5739 147.305 32.9467C147.305 31.3193 148.624 30 150.251 30C151.878 30 153.198 31.3192 153.198 32.9467Z" fill="#E82C9B"/>
<path d="M152.627 38.4133L151.422 37.2086C151.358 37.1448 151.255 37.1448 151.191 37.2086L150.782 37.6177C150.718 37.6815 150.718 37.7848 150.782 37.8485L151.871 38.9379C151.935 39.0017 151.935 39.1052 151.871 39.1688L150.782 40.2581C150.718 40.322 150.718 40.4254 150.782 40.489L151.191 40.8982C151.255 40.962 151.358 40.962 151.422 40.8982L152.627 39.6934L153.152 39.1687C153.215 39.105 153.215 39.0015 153.152 38.9378L152.627 38.4133Z" fill="#E82C9B"/>
<path d="M149.893 39.0533C149.893 40.6808 148.574 42 146.946 42C145.319 42 144 40.6808 144 39.0533C144 37.426 145.319 36.1069 146.946 36.1069C148.574 36.1069 149.893 37.4261 149.893 39.0533Z" fill="#E82C9B"/>
<path d="M58.016 74L49.448 59.792H49.808V64.688H45.776V63.488H48.152L47.744 63.8V58.544L48.032 59.048L45.776 58.592V57.32L50.672 57.2L59.096 71.144L58.736 71.168V66.2H62.768V67.4H60.44L60.8 67.064V74H58.016ZM45.776 74V72.728L48.152 72.176L47.744 72.704V67.064L48.152 67.4H45.776V66.2H49.808V72.704L49.4 72.176L51.776 72.728V74H45.776ZM58.736 64.688V58.544L59.144 59.048L56.768 58.592V57.32L62.768 57.2V58.472L60.416 59.072L60.8 58.544V63.8L60.488 63.488H62.768V64.688H58.736ZM76.2489 58.952L69.8409 74H67.1289L73.7289 58.784L74.0889 59.168H66.3129L66.8649 58.76L66.3369 61.664H64.8249V57.2H76.2489V58.952ZM79.7763 67.064L79.6803 65.384C80.4323 64.888 81.2163 64.504 82.0323 64.232C82.8643 63.96 83.6883 63.824 84.5043 63.824C85.4323 63.824 86.2723 64.008 87.0243 64.376C87.7923 64.744 88.4003 65.296 88.8483 66.032C89.2963 66.752 89.5203 67.656 89.5203 68.744C89.5203 69.88 89.2723 70.864 88.7763 71.696C88.2803 72.512 87.5843 73.144 86.6883 73.592C85.8083 74.024 84.8003 74.24 83.6643 74.24C82.4803 74.24 81.4323 73.976 80.5203 73.448C79.6083 72.92 78.8883 72.096 78.3603 70.976C77.8483 69.856 77.5923 68.416 77.5923 66.656C77.5923 64.656 77.9203 62.936 78.5763 61.496C79.2483 60.056 80.1843 58.944 81.3843 58.16C82.6003 57.36 84.0163 56.96 85.6323 56.96C86.5123 56.96 87.4243 57.08 88.3683 57.32L88.1763 59.12C87.7763 59.04 87.3843 58.984 87.0003 58.952C86.6163 58.904 86.2563 58.88 85.9203 58.88C84.5923 58.88 83.4963 59.192 82.6323 59.816C81.7843 60.44 81.1523 61.336 80.7363 62.504C80.3203 63.672 80.1123 65.072 80.1123 66.704C80.1123 68.624 80.4163 70.04 81.0243 70.952C81.6323 71.864 82.5203 72.32 83.6883 72.32C84.7123 72.32 85.5203 72.016 86.1123 71.408C86.7043 70.784 87.0003 69.928 87.0003 68.84C87.0003 68.104 86.8563 67.496 86.5683 67.016C86.2803 66.536 85.8883 66.176 85.3923 65.936C84.9123 65.696 84.3683 65.576 83.7603 65.576C83.1203 65.576 82.4483 65.704 81.7443 65.96C81.0563 66.2 80.4003 66.568 79.7763 67.064ZM97.9897 74.24C96.5817 74.24 95.4217 73.928 94.5097 73.304C93.6137 72.664 92.9497 71.72 92.5177 70.472C92.0857 69.208 91.8697 67.632 91.8697 65.744C91.8697 63.792 92.0937 62.168 92.5417 60.872C92.9897 59.576 93.6937 58.6 94.6537 57.944C95.6137 57.288 96.8377 56.96 98.3257 56.96C99.7817 56.96 100.942 57.264 101.806 57.872C102.686 58.464 103.318 59.376 103.702 60.608C104.102 61.84 104.302 63.392 104.302 65.264C104.302 67.248 104.07 68.904 103.606 70.232C103.158 71.56 102.47 72.56 101.542 73.232C100.614 73.904 99.4297 74.24 97.9897 74.24ZM98.0617 72.344C98.9257 72.344 99.6217 72.096 100.15 71.6C100.694 71.088 101.094 70.328 101.35 69.32C101.606 68.296 101.742 67 101.758 65.432C101.774 63.832 101.654 62.552 101.398 61.592C101.142 60.632 100.75 59.936 100.222 59.504C99.7097 59.072 99.0457 58.856 98.2297 58.856C97.3337 58.856 96.5977 59.104 96.0217 59.6C95.4617 60.096 95.0537 60.848 94.7977 61.856C94.5417 62.848 94.4137 64.112 94.4137 65.648C94.4137 67.168 94.5417 68.424 94.7977 69.416C95.0537 70.408 95.4457 71.144 95.9737 71.624C96.5177 72.104 97.2137 72.344 98.0617 72.344ZM105.597 77.072C106.077 76.352 106.397 75.784 106.557 75.368C106.717 74.968 106.797 74.672 106.797 74.48C106.797 74.288 106.733 74.12 106.605 73.976C106.493 73.816 106.381 73.64 106.269 73.448C106.157 73.256 106.101 73.008 106.101 72.704C106.101 72.24 106.253 71.88 106.557 71.624C106.877 71.368 107.221 71.24 107.589 71.24C107.829 71.24 108.061 71.296 108.285 71.408C108.509 71.52 108.685 71.696 108.813 71.936C108.957 72.176 109.029 72.488 109.029 72.872C109.029 73.384 108.837 74.064 108.453 74.912C108.085 75.776 107.429 76.712 106.485 77.72L105.597 77.072ZM116.482 74.24C115.074 74.24 113.914 73.928 113.002 73.304C112.106 72.664 111.442 71.72 111.01 70.472C110.578 69.208 110.362 67.632 110.362 65.744C110.362 63.792 110.586 62.168 111.034 60.872C111.482 59.576 112.186 58.6 113.146 57.944C114.106 57.288 115.33 56.96 116.818 56.96C118.274 56.96 119.434 57.264 120.298 57.872C121.178 58.464 121.81 59.376 122.194 60.608C122.594 61.84 122.794 63.392 122.794 65.264C122.794 67.248 122.562 68.904 122.098 70.232C121.65 71.56 120.962 72.56 120.034 73.232C119.106 73.904 117.922 74.24 116.482 74.24ZM116.554 72.344C117.418 72.344 118.114 72.096 118.642 71.6C119.186 71.088 119.586 70.328 119.842 69.32C120.098 68.296 120.234 67 120.25 65.432C120.266 63.832 120.146 62.552 119.89 61.592C119.634 60.632 119.242 59.936 118.714 59.504C118.202 59.072 117.538 58.856 116.722 58.856C115.826 58.856 115.09 59.104 114.514 59.6C113.954 60.096 113.546 60.848 113.29 61.856C113.034 62.848 112.906 64.112 112.906 65.648C112.906 67.168 113.034 68.424 113.29 69.416C113.546 70.408 113.938 71.144 114.466 71.624C115.01 72.104 115.706 72.344 116.554 72.344ZM131.81 74.24C130.402 74.24 129.242 73.928 128.33 73.304C127.434 72.664 126.77 71.72 126.338 70.472C125.906 69.208 125.69 67.632 125.69 65.744C125.69 63.792 125.914 62.168 126.362 60.872C126.81 59.576 127.514 58.6 128.474 57.944C129.434 57.288 130.658 56.96 132.146 56.96C133.602 56.96 134.762 57.264 135.626 57.872C136.506 58.464 137.138 59.376 137.522 60.608C137.922 61.84 138.122 63.392 138.122 65.264C138.122 67.248 137.89 68.904 137.426 70.232C136.978 71.56 136.29 72.56 135.362 73.232C134.434 73.904 133.25 74.24 131.81 74.24ZM131.882 72.344C132.746 72.344 133.442 72.096 133.97 71.6C134.514 71.088 134.914 70.328 135.17 69.32C135.426 68.296 135.562 67 135.578 65.432C135.594 63.832 135.474 62.552 135.218 61.592C134.962 60.632 134.57 59.936 134.042 59.504C133.53 59.072 132.866 58.856 132.05 58.856C131.154 58.856 130.418 59.104 129.842 59.6C129.282 60.096 128.874 60.848 128.618 61.856C128.362 62.848 128.234 64.112 128.234 65.648C128.234 67.168 128.362 68.424 128.618 69.416C128.874 70.408 129.266 71.144 129.794 71.624C130.338 72.104 131.034 72.344 131.882 72.344ZM147.138 74.24C145.73 74.24 144.57 73.928 143.658 73.304C142.762 72.664 142.098 71.72 141.666 70.472C141.234 69.208 141.018 67.632 141.018 65.744C141.018 63.792 141.242 62.168 141.69 60.872C142.138 59.576 142.842 58.6 143.802 57.944C144.762 57.288 145.986 56.96 147.474 56.96C148.93 56.96 150.09 57.264 150.954 57.872C151.834 58.464 152.466 59.376 152.85 60.608C153.25 61.84 153.45 63.392 153.45 65.264C153.45 67.248 153.218 68.904 152.754 70.232C152.306 71.56 151.618 72.56 150.69 73.232C149.762 73.904 148.578 74.24 147.138 74.24ZM147.21 72.344C148.074 72.344 148.77 72.096 149.298 71.6C149.842 71.088 150.242 70.328 150.498 69.32C150.754 68.296 150.89 67 150.906 65.432C150.922 63.832 150.802 62.552 150.546 61.592C150.29 60.632 149.898 59.936 149.37 59.504C148.858 59.072 148.194 58.856 147.378 58.856C146.482 58.856 145.746 59.104 145.17 59.6C144.61 60.096 144.202 60.848 143.946 61.856C143.69 62.848 143.562 64.112 143.562 65.648C143.562 67.168 143.69 68.424 143.946 69.416C144.202 70.408 144.594 71.144 145.122 71.624C145.666 72.104 146.362 72.344 147.21 72.344Z" fill="black"/>
<path d="M48.578 101.168C47.906 101.168 47.2947 101.037 46.744 100.776C46.2027 100.505 45.7687 100.09 45.442 99.53C45.1153 98.97 44.952 98.256 44.952 97.388V91.2H46.128V97.402C46.128 98.354 46.3567 99.0447 46.814 99.474C47.2713 99.9033 47.8687 100.118 48.606 100.118C49.3433 100.118 49.936 99.9033 50.384 99.474C50.832 99.0447 51.056 98.354 51.056 97.402V91.2H52.232V97.388C52.232 98.256 52.0687 98.97 51.742 99.53C51.4153 100.09 50.9767 100.505 50.426 100.776C49.8753 101.037 49.2593 101.168 48.578 101.168ZM56.8135 101.168C55.9828 101.168 55.2922 100.958 54.7415 100.538C54.1908 100.118 53.8688 99.5487 53.7755 98.83H54.9795C55.0542 99.194 55.2455 99.5113 55.5535 99.782C55.8708 100.043 56.2955 100.174 56.8275 100.174C57.3222 100.174 57.6862 100.071 57.9195 99.866C58.1528 99.6513 58.2695 99.3993 58.2695 99.11C58.2695 98.69 58.1155 98.41 57.8075 98.27C57.5088 98.13 57.0842 98.004 56.5335 97.892C56.1602 97.8173 55.7868 97.71 55.4135 97.57C55.0402 97.43 54.7275 97.234 54.4755 96.982C54.2235 96.7207 54.0975 96.38 54.0975 95.96C54.0975 95.3533 54.3215 94.8587 54.7695 94.476C55.2268 94.084 55.8428 93.888 56.6175 93.888C57.3548 93.888 57.9568 94.0747 58.4235 94.448C58.8995 94.812 59.1748 95.3347 59.2495 96.016H58.0875C58.0408 95.6613 57.8868 95.386 57.6255 95.19C57.3735 94.9847 57.0328 94.882 56.6035 94.882C56.1835 94.882 55.8568 94.9707 55.6235 95.148C55.3995 95.3253 55.2875 95.5587 55.2875 95.848C55.2875 96.128 55.4322 96.3473 55.7215 96.506C56.0202 96.6647 56.4215 96.8 56.9255 96.912C57.3548 97.0053 57.7608 97.122 58.1435 97.262C58.5355 97.3927 58.8528 97.5933 59.0955 97.864C59.3475 98.1253 59.4735 98.508 59.4735 99.012C59.4828 99.6373 59.2448 100.155 58.7595 100.566C58.2835 100.967 57.6348 101.168 56.8135 101.168ZM64.2755 101.168C63.6128 101.168 63.0248 101.019 62.5115 100.72C61.9982 100.412 61.5922 99.9873 61.2935 99.446C61.0042 98.9047 60.8595 98.2653 60.8595 97.528C60.8595 96.8 61.0042 96.1653 61.2935 95.624C61.5828 95.0733 61.9842 94.6487 62.4975 94.35C63.0202 94.042 63.6222 93.888 64.3035 93.888C64.9755 93.888 65.5542 94.042 66.0395 94.35C66.5342 94.6487 66.9122 95.0453 67.1735 95.54C67.4348 96.0347 67.5655 96.5667 67.5655 97.136C67.5655 97.2387 67.5608 97.3413 67.5515 97.444C67.5515 97.5467 67.5515 97.6633 67.5515 97.794H62.0215C62.0495 98.326 62.1708 98.7693 62.3855 99.124C62.6095 99.4693 62.8848 99.7307 63.2115 99.908C63.5475 100.085 63.9022 100.174 64.2755 100.174C64.7608 100.174 65.1668 100.062 65.4935 99.838C65.8202 99.614 66.0582 99.3107 66.2075 98.928H67.3695C67.1828 99.572 66.8235 100.109 66.2915 100.538C65.7688 100.958 65.0968 101.168 64.2755 101.168ZM64.2755 94.882C63.7155 94.882 63.2162 95.0547 62.7775 95.4C62.3482 95.736 62.1008 96.2307 62.0355 96.884H66.4035C66.3755 96.2587 66.1608 95.7687 65.7595 95.414C65.3582 95.0593 64.8635 94.882 64.2755 94.882ZM69.1242 101V94.056H70.1882L70.2862 95.386C70.5009 94.9287 70.8275 94.5647 71.2662 94.294C71.7049 94.0233 72.2462 93.888 72.8902 93.888V95.12H72.5682C72.1575 95.12 71.7795 95.1947 71.4342 95.344C71.0889 95.484 70.8135 95.7267 70.6082 96.072C70.4029 96.4173 70.3002 96.8933 70.3002 97.5V101H69.1242ZM76.8701 101.168C76.0395 101.168 75.3488 100.958 74.7981 100.538C74.2475 100.118 73.9255 99.5487 73.8321 98.83H75.0361C75.1108 99.194 75.3021 99.5113 75.6101 99.782C75.9275 100.043 76.3521 100.174 76.8841 100.174C77.3788 100.174 77.7428 100.071 77.9761 99.866C78.2095 99.6513 78.3261 99.3993 78.3261 99.11C78.3261 98.69 78.1721 98.41 77.8641 98.27C77.5655 98.13 77.1408 98.004 76.5901 97.892C76.2168 97.8173 75.8435 97.71 75.4701 97.57C75.0968 97.43 74.7841 97.234 74.5321 96.982C74.2801 96.7207 74.1541 96.38 74.1541 95.96C74.1541 95.3533 74.3781 94.8587 74.8261 94.476C75.2835 94.084 75.8995 93.888 76.6741 93.888C77.4115 93.888 78.0135 94.0747 78.4801 94.448C78.9561 94.812 79.2315 95.3347 79.3061 96.016H78.1441C78.0975 95.6613 77.9435 95.386 77.6821 95.19C77.4301 94.9847 77.0895 94.882 76.6601 94.882C76.2401 94.882 75.9135 94.9707 75.6801 95.148C75.4561 95.3253 75.3441 95.5587 75.3441 95.848C75.3441 96.128 75.4888 96.3473 75.7781 96.506C76.0768 96.6647 76.4781 96.8 76.9821 96.912C77.4115 97.0053 77.8175 97.122 78.2001 97.262C78.5921 97.3927 78.9095 97.5933 79.1521 97.864C79.4041 98.1253 79.5301 98.508 79.5301 99.012C79.5395 99.6373 79.3015 100.155 78.8161 100.566C78.3401 100.967 77.6915 101.168 76.8701 101.168ZM81.6161 101.07C81.3828 101.07 81.1868 100.995 81.0281 100.846C80.8788 100.687 80.8041 100.496 80.8041 100.272C80.8041 100.048 80.8788 99.8613 81.0281 99.712C81.1868 99.5533 81.3828 99.474 81.6161 99.474C81.8401 99.474 82.0268 99.5533 82.1761 99.712C82.3348 99.8613 82.4141 100.048 82.4141 100.272C82.4141 100.496 82.3348 100.687 82.1761 100.846C82.0268 100.995 81.8401 101.07 81.6161 101.07ZM81.6161 95.484C81.3828 95.484 81.1868 95.4093 81.0281 95.26C80.8788 95.1013 80.8041 94.91 80.8041 94.686C80.8041 94.462 80.8788 94.2753 81.0281 94.126C81.1868 93.9673 81.3828 93.888 81.6161 93.888C81.8401 93.888 82.0268 93.9673 82.1761 94.126C82.3348 94.2753 82.4141 94.462 82.4141 94.686C82.4141 94.91 82.3348 95.1013 82.1761 95.26C82.0268 95.4093 81.8401 95.484 81.6161 95.484Z" fill="#2C9BE8"/>
<path d="M92.158 101.168C91.4393 101.168 90.814 101.037 90.282 100.776C89.75 100.515 89.3393 100.151 89.05 99.684C88.7607 99.2173 88.616 98.676 88.616 98.06H89.848C89.848 98.4427 89.9367 98.7973 90.114 99.124C90.2913 99.4413 90.548 99.698 90.884 99.894C91.2293 100.081 91.654 100.174 92.158 100.174C92.8207 100.174 93.334 100.015 93.698 99.698C94.062 99.3807 94.244 98.984 94.244 98.508C94.244 98.116 94.16 97.8033 93.992 97.57C93.824 97.3273 93.5953 97.1313 93.306 96.982C93.026 96.8327 92.6993 96.702 92.326 96.59C91.962 96.478 91.5793 96.352 91.178 96.212C90.422 95.9507 89.862 95.6287 89.498 95.246C89.134 94.854 88.952 94.3453 88.952 93.72C88.9427 93.1973 89.064 92.7353 89.316 92.334C89.568 91.9233 89.9227 91.606 90.38 91.382C90.8467 91.1487 91.3973 91.032 92.032 91.032C92.6573 91.032 93.1987 91.1487 93.656 91.382C94.1227 91.6153 94.482 91.9373 94.734 92.348C94.9953 92.7587 95.1307 93.2253 95.14 93.748H93.908C93.908 93.4773 93.838 93.2113 93.698 92.95C93.558 92.6793 93.3433 92.46 93.054 92.292C92.774 92.124 92.4193 92.04 91.99 92.04C91.458 92.0307 91.0193 92.166 90.674 92.446C90.338 92.726 90.17 93.1133 90.17 93.608C90.17 94.028 90.2867 94.35 90.52 94.574C90.7627 94.798 91.0987 94.9847 91.528 95.134C91.9573 95.274 92.452 95.4373 93.012 95.624C93.4787 95.792 93.8987 95.988 94.272 96.212C94.6453 96.436 94.9347 96.7253 95.14 97.08C95.3547 97.4347 95.462 97.8873 95.462 98.438C95.462 98.9047 95.3407 99.348 95.098 99.768C94.8553 100.179 94.4867 100.515 93.992 100.776C93.5067 101.037 92.8953 101.168 92.158 101.168ZM100.224 101.168C99.5704 101.168 98.9824 101.019 98.4598 100.72C97.9371 100.421 97.5218 100.001 97.2138 99.46C96.9151 98.9093 96.7658 98.2653 96.7658 97.528C96.7658 96.7907 96.9198 96.1513 97.2278 95.61C97.5358 95.0593 97.9511 94.6347 98.4738 94.336C99.0058 94.0373 99.5984 93.888 100.252 93.888C100.905 93.888 101.493 94.0373 102.016 94.336C102.538 94.6347 102.949 95.0593 103.248 95.61C103.556 96.1513 103.71 96.7907 103.71 97.528C103.71 98.2653 103.556 98.9093 103.248 99.46C102.94 100.001 102.52 100.421 101.988 100.72C101.465 101.019 100.877 101.168 100.224 101.168ZM100.224 100.16C100.625 100.16 100.998 100.062 101.344 99.866C101.689 99.67 101.969 99.376 102.184 98.984C102.398 98.592 102.506 98.1067 102.506 97.528C102.506 96.9493 102.398 96.464 102.184 96.072C101.978 95.68 101.703 95.386 101.358 95.19C101.012 94.994 100.644 94.896 100.252 94.896C99.8504 94.896 99.4771 94.994 99.1318 95.19C98.7864 95.386 98.5064 95.68 98.2918 96.072C98.0771 96.464 97.9698 96.9493 97.9698 97.528C97.9698 98.1067 98.0771 98.592 98.2918 98.984C98.5064 99.376 98.7818 99.67 99.1178 99.866C99.4631 100.062 99.8318 100.16 100.224 100.16ZM106.991 101L104.359 94.056H105.591L107.677 99.866L109.777 94.056H110.981L108.349 101H106.991ZM113.004 92.516C112.771 92.516 112.575 92.4413 112.416 92.292C112.267 92.1333 112.192 91.9373 112.192 91.704C112.192 91.48 112.267 91.2933 112.416 91.144C112.575 90.9947 112.771 90.92 113.004 90.92C113.228 90.92 113.42 90.9947 113.578 91.144C113.737 91.2933 113.816 91.48 113.816 91.704C113.816 91.9373 113.737 92.1333 113.578 92.292C113.42 92.4413 113.228 92.516 113.004 92.516ZM112.416 101V94.056H113.592V101H112.416ZM118.79 101.168C118.099 101.168 117.492 101.009 116.97 100.692C116.456 100.375 116.055 99.9407 115.766 99.39C115.486 98.8393 115.346 98.214 115.346 97.514C115.346 96.814 115.49 96.1933 115.78 95.652C116.069 95.1013 116.47 94.672 116.984 94.364C117.497 94.0467 118.104 93.888 118.804 93.888C119.373 93.888 119.877 94.0047 120.316 94.238C120.754 94.4713 121.095 94.798 121.338 95.218V90.92H122.514V101H121.45L121.338 99.852C121.114 100.188 120.792 100.491 120.372 100.762C119.952 101.033 119.424 101.168 118.79 101.168ZM118.916 100.146C119.382 100.146 119.793 100.039 120.148 99.824C120.512 99.6 120.792 99.292 120.988 98.9C121.193 98.508 121.296 98.0507 121.296 97.528C121.296 97.0053 121.193 96.548 120.988 96.156C120.792 95.764 120.512 95.4607 120.148 95.246C119.793 95.022 119.382 94.91 118.916 94.91C118.458 94.91 118.048 95.022 117.684 95.246C117.329 95.4607 117.049 95.764 116.844 96.156C116.648 96.548 116.55 97.0053 116.55 97.528C116.55 98.0507 116.648 98.508 116.844 98.9C117.049 99.292 117.329 99.6 117.684 99.824C118.048 100.039 118.458 100.146 118.916 100.146ZM126.741 101.168C126.162 101.168 125.682 101.07 125.299 100.874C124.916 100.678 124.632 100.417 124.445 100.09C124.258 99.7633 124.165 99.4087 124.165 99.026C124.165 98.3167 124.436 97.7707 124.977 97.388C125.518 97.0053 126.256 96.814 127.189 96.814H129.065V96.73C129.065 96.1233 128.906 95.666 128.589 95.358C128.272 95.0407 127.847 94.882 127.315 94.882C126.858 94.882 126.461 94.9987 126.125 95.232C125.798 95.456 125.593 95.7873 125.509 96.226H124.305C124.352 95.722 124.52 95.2973 124.809 94.952C125.108 94.6067 125.476 94.3453 125.915 94.168C126.354 93.9813 126.82 93.888 127.315 93.888C128.286 93.888 129.014 94.1493 129.499 94.672C129.994 95.1853 130.241 95.8713 130.241 96.73V101H129.191L129.121 99.754C128.925 100.146 128.636 100.482 128.253 100.762C127.88 101.033 127.376 101.168 126.741 101.168ZM126.923 100.174C127.371 100.174 127.754 100.057 128.071 99.824C128.398 99.5907 128.645 99.2873 128.813 98.914C128.981 98.5407 129.065 98.1487 129.065 97.738V97.724H127.287C126.596 97.724 126.106 97.8453 125.817 98.088C125.537 98.3213 125.397 98.6153 125.397 98.97C125.397 99.334 125.528 99.628 125.789 99.852C126.06 100.067 126.438 100.174 126.923 100.174ZM138.734 101L135.052 91.2H136.326L139.42 99.754L142.542 91.2H143.788L140.106 101H138.734ZM147.268 101.168C146.605 101.168 146.017 101.019 145.504 100.72C144.99 100.412 144.584 99.9873 144.286 99.446C143.996 98.9047 143.852 98.2653 143.852 97.528C143.852 96.8 143.996 96.1653 144.286 95.624C144.575 95.0733 144.976 94.6487 145.49 94.35C146.012 94.042 146.614 93.888 147.296 93.888C147.968 93.888 148.546 94.042 149.032 94.35C149.526 94.6487 149.904 95.0453 150.166 95.54C150.427 96.0347 150.558 96.5667 150.558 97.136C150.558 97.2387 150.553 97.3413 150.544 97.444C150.544 97.5467 150.544 97.6633 150.544 97.794H145.014C145.042 98.326 145.163 98.7693 145.378 99.124C145.602 99.4693 145.877 99.7307 146.204 99.908C146.54 100.085 146.894 100.174 147.268 100.174C147.753 100.174 148.159 100.062 148.486 99.838C148.812 99.614 149.05 99.3107 149.2 98.928H150.362C150.175 99.572 149.816 100.109 149.284 100.538C148.761 100.958 148.089 101.168 147.268 101.168ZM147.268 94.882C146.708 94.882 146.208 95.0547 145.77 95.4C145.34 95.736 145.093 96.2307 145.028 96.884H149.396C149.368 96.2587 149.153 95.7687 148.752 95.414C148.35 95.0593 147.856 94.882 147.268 94.882ZM152.116 101V94.056H153.18L153.25 95.302C153.474 94.8633 153.796 94.518 154.216 94.266C154.636 94.014 155.112 93.888 155.644 93.888C156.466 93.888 157.119 94.14 157.604 94.644C158.099 95.1387 158.346 95.904 158.346 96.94V101H157.17V97.066C157.17 95.6193 156.573 94.896 155.378 94.896C154.781 94.896 154.282 95.1153 153.88 95.554C153.488 95.9833 153.292 96.5993 153.292 97.402V101H152.116ZM162.872 101C162.237 101 161.738 100.846 161.374 100.538C161.01 100.23 160.828 99.6747 160.828 98.872V95.05H159.624V94.056H160.828L160.982 92.39H162.004V94.056H164.048V95.05H162.004V98.872C162.004 99.3107 162.093 99.6093 162.27 99.768C162.447 99.9173 162.76 99.992 163.208 99.992H163.936V101H162.872ZM168.076 101.168C167.255 101.168 166.602 100.921 166.116 100.426C165.631 99.922 165.388 99.152 165.388 98.116V94.056H166.564V97.99C166.564 99.4367 167.157 100.16 168.342 100.16C168.949 100.16 169.448 99.9453 169.84 99.516C170.242 99.0773 170.442 98.4567 170.442 97.654V94.056H171.618V101H170.554L170.47 99.754C170.256 100.193 169.934 100.538 169.504 100.79C169.084 101.042 168.608 101.168 168.076 101.168ZM173.554 101V94.056H174.618L174.716 95.386C174.931 94.9287 175.257 94.5647 175.696 94.294C176.135 94.0233 176.676 93.888 177.32 93.888V95.12H176.998C176.587 95.12 176.209 95.1947 175.864 95.344C175.519 95.484 175.243 95.7267 175.038 96.072C174.833 96.4173 174.73 96.8933 174.73 97.5V101H173.554ZM181.502 101.168C180.839 101.168 180.251 101.019 179.738 100.72C179.225 100.412 178.819 99.9873 178.52 99.446C178.231 98.9047 178.086 98.2653 178.086 97.528C178.086 96.8 178.231 96.1653 178.52 95.624C178.809 95.0733 179.211 94.6487 179.724 94.35C180.247 94.042 180.849 93.888 181.53 93.888C182.202 93.888 182.781 94.042 183.266 94.35C183.761 94.6487 184.139 95.0453 184.4 95.54C184.661 96.0347 184.792 96.5667 184.792 97.136C184.792 97.2387 184.787 97.3413 184.778 97.444C184.778 97.5467 184.778 97.6633 184.778 97.794H179.248C179.276 98.326 179.397 98.7693 179.612 99.124C179.836 99.4693 180.111 99.7307 180.438 99.908C180.774 100.085 181.129 100.174 181.502 100.174C181.987 100.174 182.393 100.062 182.72 99.838C183.047 99.614 183.285 99.3107 183.434 98.928H184.596C184.409 99.572 184.05 100.109 183.518 100.538C182.995 100.958 182.323 101.168 181.502 101.168ZM181.502 94.882C180.942 94.882 180.443 95.0547 180.004 95.4C179.575 95.736 179.327 96.2307 179.262 96.884H183.63C183.602 96.2587 183.387 95.7687 182.986 95.414C182.585 95.0593 182.09 94.882 181.502 94.882ZM189.011 101.168C188.18 101.168 187.489 100.958 186.939 100.538C186.388 100.118 186.066 99.5487 185.973 98.83H187.177C187.251 99.194 187.443 99.5113 187.751 99.782C188.068 100.043 188.493 100.174 189.025 100.174C189.519 100.174 189.883 100.071 190.117 99.866C190.35 99.6513 190.467 99.3993 190.467 99.11C190.467 98.69 190.313 98.41 190.005 98.27C189.706 98.13 189.281 98.004 188.731 97.892C188.357 97.8173 187.984 97.71 187.611 97.57C187.237 97.43 186.925 97.234 186.673 96.982C186.421 96.7207 186.295 96.38 186.295 95.96C186.295 95.3533 186.519 94.8587 186.967 94.476C187.424 94.084 188.04 93.888 188.815 93.888C189.552 93.888 190.154 94.0747 190.621 94.448C191.097 94.812 191.372 95.3347 191.447 96.016H190.285C190.238 95.6613 190.084 95.386 189.823 95.19C189.571 94.9847 189.23 94.882 188.801 94.882C188.381 94.882 188.054 94.9707 187.821 95.148C187.597 95.3253 187.485 95.5587 187.485 95.848C187.485 96.128 187.629 96.3473 187.919 96.506C188.217 96.6647 188.619 96.8 189.123 96.912C189.552 97.0053 189.958 97.122 190.341 97.262C190.733 97.3927 191.05 97.5933 191.293 97.864C191.545 98.1253 191.671 98.508 191.671 99.012C191.68 99.6373 191.442 100.155 190.957 100.566C190.481 100.967 189.832 101.168 189.011 101.168Z" fill="#414141"/>
<defs>
<filter id="filter0_d_579_68" x="0" y="0" width="300" height="148" filterUnits="userSpaceOnUse" color-interpolation-filters="sRGB">
<feFlood flood-opacity="0" result="BackgroundImageFix"/>
<feColorMatrix in="SourceAlpha" type="matrix" values="0 0 0 0 0 0 0 0 0 0 0 0 0 0 0 0 0 0 127 0" result="hardAlpha"/>
<feOffset dx="4" dy="8"/>
<feGaussianBlur stdDeviation="12"/>
<feComposite in2="hardAlpha" operator="out"/>
<feColorMatrix type="matrix" values="0 0 0 0 0 0 0 0 0 0 0 0 0 0 0 0 0 0 0.08 0"/>
<feBlend mode="normal" in2="BackgroundImageFix" result="effect1_dropShadow_579_68"/>
<feBlend mode="normal" in="SourceGraphic" in2="effect1_dropShadow_579_68" result="shape"/>
</filter>
</defs>
</svg>
